<?xml version="1.0" standalone="no"?>
<!DOCTYPE svg PUBLIC "-//W3C//DTD SVG 20010904//EN"
 "http://www.w3.org/TR/2001/REC-SVG-20010904/DTD/svg10.dtd">
<svg version="1.0" xmlns="http://www.w3.org/2000/svg"
 width="1280.000000pt" height="1254.000000pt" viewBox="0 0 1280.000000 1254.000000"
 preserveAspectRatio="xMidYMid meet">
<g transform="translate(0.000000,1254.000000) scale(0.100000,-0.100000)"
fill="#000000" stroke="none">
<path d="M8947 12520 c-90 -23 -178 -95 -218 -179 -33 -70 -37 -179 -9 -256
21 -57 47 -85 502 -541 418 -419 479 -484 470 -500 -15 -27 -1685 -1694 -1697
-1694 -5 0 -309 299 -675 663 -758 756 -704 712 -870 712 -114 0 -163 -19
-241 -92 -113 -106 -144 -263 -79 -410 17 -38 122 -149 532 -559 382 -383 508
-515 502 -526 -5 -8 -1120 -1112 -2479 -2452 -1358 -1341 -2549 -2516 -2645
-2612 l-174 -173 117 -878 c65 -483 117 -892 117 -908 0 -26 -124 -154 -1030
-1060 -566 -566 -1027 -1031 -1025 -1033 2 -2 129 20 282 48 l278 53 475 468
c261 257 657 650 880 873 338 339 409 406 433 406 15 0 395 -56 845 -125 450
-69 827 -125 838 -125 12 0 998 967 2682 2630 1465 1446 2669 2630 2675 2630
6 0 234 -222 507 -493 565 -563 537 -542 695 -542 82 0 97 3 157 33 77 38 130
92 167 171 22 48 26 69 26 151 0 84 -3 101 -28 150 -23 44 -155 182 -688 715
-362 363 -659 665 -659 670 0 13 1692 1705 1705 1705 5 0 221 -211 480 -469
536 -536 524 -526 670 -526 101 0 172 32 239 106 48 53 86 148 86 213 0 45
-27 132 -55 175 -13 20 -812 824 -1777 1787 -1586 1584 -1758 1753 -1807 1774
-62 25 -148 34 -204 20z m1565 -2267 c274 -274 498 -502 498 -508 0 -13 -1692
-1705 -1705 -1705 -16 0 -1005 994 -1005 1010 0 20 1681 1700 1700 1700 8 0
239 -224 512 -497z m-2203 -2237 c490 -490 812 -819 810 -828 -3 -11 -4444
-4405 -5072 -5017 l-107 -105 -708 108 c-389 60 -711 112 -716 116 -8 8 -195
1376 -196 1434 0 25 69 97 523 547 288 284 538 529 556 544 l32 28 317 -316
c174 -174 330 -321 345 -326 112 -42 238 44 237 162 -1 68 -34 108 -339 412
-166 165 -301 307 -301 315 0 19 370 390 390 390 8 0 154 -139 325 -309 170
-171 323 -315 338 -320 112 -42 238 44 237 162 -1 68 -34 108 -339 412 -166
165 -301 305 -301 310 0 6 88 98 195 205 l195 194 308 -306 c169 -168 321
-313 339 -322 40 -20 115 -21 152 -2 47 25 89 81 96 130 14 88 7 96 -329 434
l-311 312 195 195 c107 107 199 195 205 195 6 0 143 -133 305 -296 162 -162
312 -304 332 -315 136 -71 288 53 248 202 -10 39 -49 81 -316 349 -167 168
-304 312 -304 321 0 8 88 99 196 203 l195 189 307 -306 c169 -168 320 -311
335 -316 46 -18 116 -13 156 10 70 39 102 118 81 200 -10 39 -44 76 -316 344
-167 166 -304 308 -304 317 0 18 377 388 394 388 6 0 144 -133 306 -296 162
-162 304 -300 315 -306 132 -74 293 48 255 193 -10 39 -47 80 -316 350 -167
168 -304 310 -304 316 0 18 509 513 528 513 9 0 371 -354 831 -814z"/>
</g>
</svg>
